<svg width="290" height="298" viewBox="0 0 290 298" fill="none" xmlns="http://www.w3.org/2000/svg">
<g filter="url(#filter0_d_124_31)">
<ellipse cx="145" cy="149" rx="125" ry="129" fill="white"/>
</g>
<path d="M224.391 130.063C222.802 126.034 218.036 124.422 214.063 126.034L191.025 137.317L174.342 120.392L157.658 103.467L168.78 80.0949C170.369 76.0652 168.78 71.2296 164.808 69.6177C160.836 68.0058 156.069 69.6177 154.481 73.6474L142.564 98.6316L91.7199 106.691C88.5422 107.497 86.1589 109.915 85.3644 113.139L66.2979 206.628C65.5035 209.046 66.2979 212.269 68.6812 213.881L82.1867 227.582C83.7756 229.194 86.1589 230 87.7477 230H89.3366L181.491 210.657C184.669 209.851 187.053 207.434 187.847 204.21L195.791 152.63L220.419 140.541C224.391 138.929 225.98 134.093 224.391 130.063ZM172.753 196.15L94.8977 212.269L124.292 182.449C136.208 188.091 150.508 183.255 156.069 171.166C161.631 159.077 156.864 144.57 144.947 138.929C136.208 134.899 125.086 136.511 117.936 143.764C110.786 151.018 109.198 162.301 113.17 171.166L83.7756 200.986L99.6643 122.004L145.742 113.944L163.219 131.675L180.697 149.406L172.753 196.15ZM126.675 160.689C126.675 158.271 127.47 156.659 129.059 155.047C132.236 151.824 137.003 151.824 140.181 155.047C143.358 158.271 143.358 163.107 140.181 166.331C137.003 169.554 132.236 169.554 129.059 166.331C127.47 164.719 126.675 162.301 126.675 160.689Z" fill="#FFDD8A"/>
<defs>
<filter id="filter0_d_124_31" x="0" y="0" width="290" height="298" filterUnits="userSpaceOnUse" color-interpolation-filters="sRGB">
<feFlood flood-opacity="0" result="BackgroundImageFix"/>
<feColorMatrix in="SourceAlpha" type="matrix" values="0 0 0 0 0 0 0 0 0 0 0 0 0 0 0 0 0 0 127 0" result="hardAlpha"/>
<feOffset/>
<feGaussianBlur stdDeviation="10"/>
<feComposite in2="hardAlpha" operator="out"/>
<feColorMatrix type="matrix" values="0 0 0 0 0 0 0 0 0 0 0 0 0 0 0 0 0 0 0.25 0"/>
<feBlend mode="normal" in2="BackgroundImageFix" result="effect1_dropShadow_124_31"/>
<feBlend mode="normal" in="SourceGraphic" in2="effect1_dropShadow_124_31" result="shape"/>
</filter>
</defs>
</svg>
